<svg xmlns="http://www.w3.org/2000/svg" width="40" height="40" version="1.0">
	<path d="M23 11h-1l1 6 6 1v-1c-1.591207-.00024-3.117155-.632539-4.242188-1.757812C23.632539 14.117155 23.00024 12.591207 23 11Z" style="opacity:1;fill:#000;fill-opacity:1;stroke:none;stroke-width:.75;stroke-linecap:butt;stroke-miterlimit:4;stroke-dasharray:none;stroke-opacity:1"/>
	<path d="M40 20a20 20 0 1 1-40 0 20 20 0 1 1 40 0z" style="opacity:1;fill:none;fill-opacity:1;stroke:#000;stroke-width:2.10526299;stroke-linecap:square;stroke-linejoin:miter;stroke-miterlimit:4;stroke-dasharray:none;stroke-dashoffset:0;stroke-opacity:1" transform="matrix(.95 0 0 .95 1 1)"/>
	<path d="M5 17h30v6H5z" style="opacity:1;fill:#000;fill-opacity:1;stroke:none;stroke-width:.1;stroke-linecap:square;stroke-linejoin:miter;stroke-miterlimit:4;stroke-dasharray:none;stroke-dashoffset:0;stroke-opacity:1"/>
	<path d="M5-23h30v6H5z" style="opacity:1;fill:#000;fill-opacity:1;stroke:none;stroke-width:.1;stroke-linecap:square;stroke-linejoin:miter;stroke-miterlimit:4;stroke-dasharray:none;stroke-dashoffset:0;stroke-opacity:1" transform="rotate(90)"/>
	<path d="M17 11h1l-1 6-6 1v-1c1.591207-.00024 3.117155-.632539 4.242188-1.757812C16.367461 14.117155 16.99976 12.591207 17 11ZM17 29h1l-1-6-6-1v1c1.591207.00024 3.117155.632539 4.242188 1.757812C16.367461 25.882845 16.99976 27.408793 17 29ZM23 29h-1l1-6 6-1v1c-1.591207.00024-3.117155.632539-4.242188 1.757812C23.632539 25.882845 23.00024 27.408793 23 29Z" style="opacity:1;fill:#000;fill-opacity:1;stroke:none;stroke-width:.75;stroke-linecap:butt;stroke-miterlimit:4;stroke-dasharray:none;stroke-opacity:1"/>
	<circle cx="29.5" cy="10.5" r="2.5" style="opacity:1;fill:#000;fill-opacity:1;stroke:none;stroke-width:.75;stroke-linecap:butt;stroke-miterlimit:4;stroke-dasharray:none;stroke-opacity:1"/>
</svg>