<svg xmlns="http://www.w3.org/2000/svg" width="40" height="40" version="1.0">
  <path d="M40 20a20 20 0 1 1-40 0 20 20 0 1 1 40 0z" style="opacity:1;fill:none;fill-opacity:1;stroke:#000;stroke-width:2.10526299;stroke-linecap:square;stroke-linejoin:miter;stroke-miterlimit:4;stroke-dasharray:none;stroke-dashoffset:0;stroke-opacity:1" transform="matrix(.95 0 0 .95 1 1)"/>
  <g style="fill:#000;fill-opacity:1;fill-rule:evenodd;stroke:#000;stroke-width:23.5892;stroke-miterlimit:4;stroke-dasharray:none;stroke-opacity:.419708">
    <path fill="none" stroke="none" d="M160.936 189.026c-9.36-30.185-5.697-62.907 10.104-90.276 15.802-27.369 42.308-46.9016 73.129-53.8882m0 0C265.125 40.1116 280 21.487 280 0c0-21.487-14.875-40.1116-35.831-44.8618-30.821-6.9866-57.327-26.5192-73.129-53.8882-15.801-27.369-19.464-60.091-10.104-90.276 6.364-20.523-2.328-42.718-20.936-53.461-18.608-10.744-42.1753-7.174-56.7668 8.599C61.7721-210.689 31.603-197.5 0-197.5c-31.603 0-61.7721-13.189-83.2332-36.388-14.5915-15.773-38.1588-19.343-56.7668-8.599-18.608 10.743-27.3 32.938-20.936 53.461 9.36 30.185 5.697 62.907-10.104 90.276-15.802 27.369-42.308 46.9016-73.129 53.8882C-265.125-40.1116-280-21.487-280 0c0 21.487 14.875 40.1116 35.831 44.8618 30.821 6.9866 57.327 26.5192 73.129 53.8882 15.801 27.369 19.464 60.091 10.104 90.276-6.364 20.523 2.328 42.718 20.936 53.461 18.608 10.744 42.1753 7.174 56.7668-8.599C-61.7721 210.689-31.603 197.5 0 197.5c31.603 0 61.7721 13.189 83.2332 36.388 14.5915 15.773 38.1588 19.343 56.7668 8.599 18.608-10.743 27.3-32.938 20.936-53.461" font-family="'DejaVu Serif'" font-size="35.2778" font-weight="400" style="fill:#000;fill-opacity:1;stroke:none;stroke-width:23.5892;stroke-miterlimit:4;stroke-dasharray:none;stroke-opacity:.419708" transform="matrix(.0453325 .0261728 -.0261728 .0453325 20 20)"/>
  </g>
</svg>
